<mxfile host="app.diagrams.net" modified="2023-08-15T06:45:53.048Z" agent="Mozilla/5.0 (X11; Linux x86_64) AppleWebKit/537.36 (KHTML, like Gecko) Chrome/115.0.0.0 Safari/537.36" version="21.6.8" etag="-VLLdkOAH_GIXt-xiIAN" type="github">
  <diagram name="Page-1" id="U4UBDNRAVtoqkKmB2t2i">
    <mxGraphModel>
      <root>
        <mxCell id="0" />
        <mxCell id="1" parent="0" />
      </root>
    </mxGraphModel>
  </diagram>
</mxfile>
